<?xml version="1.0" ?><!DOCTYPE svg  PUBLIC '-//W3C//DTD SVG 1.1//EN'  'http://www.w3.org/Graphics/SVG/1.1/DTD/svg11.dtd'><svg enable-background="new 0 0 128 128" id="Layer_1" version="1.1" viewBox="0 0 128 128" xml:space="preserve" xmlns="http://www.w3.org/2000/svg" xmlns:xlink="http://www.w3.org/1999/xlink"><path d="M106,21.7c0-3.2-2.6-5.7-5.7-5.7H28.7c-3.2,0-5.7,2.6-5.7,5.7v87.5c0,3.2,2.6,5.7,5.7,5.7h71.5  c3.2,0,5.7-2.6,5.7-5.7V21.7z" fill="#E2E2E2"/><path d="M106,21.7c0-3.2-2.6-5.7-5.7-5.7H28.7  c-3.2,0-5.7,2.6-5.7,5.7v87.5c0,3.2,2.6,5.7,5.7,5.7h71.5c3.2,0,5.7-2.6,5.7-5.7V21.7z" fill="none" stroke="#3D3D3D" stroke-miterlimit="10" stroke-width="2"/><path d="M110,21.7c0-3.2-2.6-5.7-5.7-5.7H32.7c-3.2,0-5.7,2.6-5.7,5.7v87.5c0,3.2,2.6,5.7,5.7,5.7h71.5  c3.2,0,5.7-2.6,5.7-5.7V21.7z" fill="#C1C1C0"/><path d="M110,21.7c0-3.2-2.6-5.7-5.7-5.7H32.7  c-3.2,0-5.7,2.6-5.7,5.7v87.5c0,3.2,2.6,5.7,5.7,5.7h71.5c3.2,0,5.7-2.6,5.7-5.7V21.7z" fill="none" stroke="#3D3D3D" stroke-miterlimit="10" stroke-width="2"/><rect fill="#FFFFFF" height="63" width="59" x="40" y="32"/><rect fill="none" height="63" stroke="#3D3D3D" stroke-miterlimit="10" stroke-width="2" width="59" x="40" y="32"/><line fill="none" stroke="#3D3D3D" stroke-miterlimit="10" stroke-width="2" x1="40" x2="99" y1="43" y2="43"/><rect fill="none" height="3" stroke="#3D3D3D" stroke-miterlimit="10" stroke-width="2" width="3" x="47" y="36"/><rect fill="none" height="3" stroke="#3D3D3D" stroke-miterlimit="10" stroke-width="2" width="3" x="57" y="36"/><rect fill="none" height="3" stroke="#3D3D3D" stroke-miterlimit="10" stroke-width="2" width="3" x="67" y="36"/><rect fill="none" height="3" stroke="#3D3D3D" stroke-miterlimit="10" stroke-width="2" width="3" x="77" y="36"/><rect fill="none" height="3" stroke="#3D3D3D" stroke-miterlimit="10" stroke-width="2" width="3" x="87" y="36"/><line fill="none" stroke="#3D3D3D" stroke-miterlimit="10" stroke-width="2" x1="49" x2="90" y1="52" y2="52"/><line fill="none" stroke="#3D3D3D" stroke-miterlimit="10" stroke-width="2" x1="49" x2="90" y1="56" y2="56"/><line fill="none" stroke="#3D3D3D" stroke-miterlimit="10" stroke-width="2" x1="49" x2="82" y1="60" y2="60"/><line fill="none" stroke="#3D3D3D" stroke-miterlimit="10" stroke-width="2" x1="49" x2="90" y1="65" y2="65"/><line fill="none" stroke="#3D3D3D" stroke-miterlimit="10" stroke-width="2" x1="49" x2="90" y1="69" y2="69"/><line fill="none" stroke="#3D3D3D" stroke-miterlimit="10" stroke-width="2" x1="49" x2="72" y1="73" y2="73"/><line fill="none" stroke="#3D3D3D" stroke-miterlimit="10" stroke-width="2" x1="49" x2="90" y1="78" y2="78"/><line fill="none" stroke="#3D3D3D" stroke-miterlimit="10" stroke-width="2" x1="49" x2="90" y1="82" y2="82"/><line fill="none" stroke="#3D3D3D" stroke-miterlimit="10" stroke-width="2" x1="93" x2="87" y1="89" y2="89"/><line fill="none" stroke="#3D3D3D" stroke-miterlimit="10" stroke-width="2" x1="53" x2="47" y1="89" y2="89"/><line fill="none" stroke="#3D3D3D" stroke-miterlimit="10" stroke-width="2" x1="60" x2="82" y1="105" y2="105"/></svg>