<?xml version="1.0" ?><!DOCTYPE svg  PUBLIC '-//W3C//DTD SVG 1.1//EN'  'http://www.w3.org/Graphics/SVG/1.1/DTD/svg11.dtd'><svg enable-background="new 0 0 128 128" id="Layer_1" version="1.1" viewBox="0 0 128 128" xml:space="preserve" xmlns="http://www.w3.org/2000/svg" xmlns:xlink="http://www.w3.org/1999/xlink"><path d="M103,112H32.1c-2.2,0-4.1-1.3-4.1-3.6V23.6c0-2.2,1.9-3.6,4.1-3.6H103V112z" fill="#53AF80"/><path d="M103,112H32.1c-2.2,0-4.1-1.3-4.1-3.6V23.6  c0-2.2,1.9-3.6,4.1-3.6H103V112z" fill="none" stroke="#3D3D3D" stroke-miterlimit="10" stroke-width="2"/><path d="M105,112H36.2c-2.2,0-4.2-1.3-4.2-3.6V23.6c0-2.2,2-3.6,4.2-3.6H105V112z" fill="#8DCEA8"/><path d="M105,112H36.2c-2.2,0-4.2-1.3-4.2-3.6V23.6  c0-2.2,2-3.6,4.2-3.6H105V112z" fill="none" stroke="#3D3D3D" stroke-miterlimit="10" stroke-width="2"/><circle cx="68.2" cy="54.3" fill="none" r="21.5" stroke="#3D3D3D" stroke-miterlimit="10" stroke-width="2"/><line fill="none" stroke="#3D3D3D" stroke-miterlimit="10" stroke-width="2" x1="69" x2="69" y1="32" y2="76"/><path d="M74.1,33.6c0,0,6.3,8.2,6.3,20.7s-5.3,20.4-5.3,20.4  " fill="none" stroke="#3D3D3D" stroke-miterlimit="10" stroke-width="2"/><path d="M63.3,33.6c0,0-6.3,8.2-6.3,20.7s5.3,20.4,5.3,20.4" fill="none" stroke="#3D3D3D" stroke-miterlimit="10" stroke-width="2"/><line fill="none" stroke="#3D3D3D" stroke-miterlimit="10" stroke-width="2" x1="46" x2="90" y1="54" y2="54"/><line fill="none" stroke="#3D3D3D" stroke-miterlimit="10" stroke-width="2" x1="49" x2="87" y1="44" y2="44"/><line fill="none" stroke="#3D3D3D" stroke-miterlimit="10" stroke-width="2" x1="49" x2="87" y1="64" y2="64"/><line fill="none" stroke="#3D3D3D" stroke-miterlimit="10" stroke-width="2" x1="46" x2="91" y1="90" y2="90"/></svg>