<?xml version="1.0" ?><!DOCTYPE svg  PUBLIC '-//W3C//DTD SVG 1.1//EN'  'http://www.w3.org/Graphics/SVG/1.1/DTD/svg11.dtd'><svg enable-background="new 0 0 128 128" id="Layer_1" version="1.1" viewBox="0 0 128 128" xml:space="preserve" xmlns="http://www.w3.org/2000/svg" xmlns:xlink="http://www.w3.org/1999/xlink"><path d="M102,80c0,4.4-3.6,8-8,8H19c-4.4,0-8-3.6-8-8V48c0-4.4,3.6-8,8-8h75c4.4,0,8,3.6,8,8V80z" fill="#53AF80"/><path d="M102,80c0,4.4-3.6,8-8,8H19c-4.4,0-8-3.6-8-8V48  c0-4.4,3.6-8,8-8h75c4.4,0,8,3.6,8,8V80z" fill="none" stroke="#3D3D3D" stroke-miterlimit="10" stroke-width="2"/><path d="M116,80c0,4.4-3.6,8-8,8H33c-4.4,0-8-3.6-8-8V48c0-4.4,3.6-8,8-8h75c4.4,0,8,3.6,8,8V80z" fill="#8DCEA8"/><path d="M116,80c0,4.4-3.6,8-8,8H33c-4.4,0-8-3.6-8-8V48  c0-4.4,3.6-8,8-8h75c4.4,0,8,3.6,8,8V80z" fill="none" stroke="#3D3D3D" stroke-miterlimit="10" stroke-width="2"/><path d="  M18,67V48c0-4.4,3.6-8,8-8h75" fill="none" stroke="#3D3D3D" stroke-dasharray="3,4" stroke-linecap="square" stroke-linejoin="round" stroke-miterlimit="10" stroke-width="2"/><line fill="none" stroke="#3D3D3D" stroke-miterlimit="10" stroke-width="2" x1="11" x2="25" y1="67" y2="67"/><path d="M116.7,53.9c1.8,3.9,3.6,8.3,4,12.7  c0.4,4.4-2.7,5.3-4,0S116.7,53.9,116.7,53.9z" fill="none" stroke="#3D3D3D" stroke-miterlimit="10" stroke-width="2"/><rect fill="#FFFFFF" height="14" width="13" x="34" y="65"/><rect fill="none" height="14" stroke="#3D3D3D" stroke-miterlimit="10" stroke-width="2" width="13" x="34" y="65"/></svg>