<?xml version="1.0" ?><!DOCTYPE svg  PUBLIC '-//W3C//DTD SVG 1.1//EN'  'http://www.w3.org/Graphics/SVG/1.1/DTD/svg11.dtd'><svg enable-background="new 0 0 128 128" id="Layer_1" version="1.1" viewBox="0 0 128 128" xml:space="preserve" xmlns="http://www.w3.org/2000/svg" xmlns:xlink="http://www.w3.org/1999/xlink"><path d="M60,119c-21.7,0-39.3-17.3-39.3-39S38.4,41,60,41h11v78H60z" fill="#8DCEA8"/><path d="M60,119c-21.7,0-39.3-17.3-39.3-39S38.4,41,60,41h8  v78H60z" fill="none" stroke="#3D3D3D" stroke-miterlimit="10" stroke-width="2"/><circle cx="68" cy="80" fill="#C1C1C0" r="39.3"/><circle cx="68" cy="80" fill="none" r="39.3" stroke="#3D3D3D" stroke-miterlimit="10" stroke-width="2"/><circle cx="68" cy="80" fill="#FFFFFF" r="30.2"/><circle cx="68" cy="80" fill="none" r="31.3" stroke="#3D3D3D" stroke-miterlimit="10" stroke-width="2"/><line fill="none" stroke="#3D3D3D" stroke-miterlimit="10" stroke-width="2" x1="64" x2="64" y1="41" y2="29"/><g><path d="M68,75.8c1.1,0,2.2,0.4,3,1.3c1.7,1.7,1.7,4.4,0,6c-2.6,2.6-13.2,10.2-17.3,11.3c0.4-1.3,1.6-3.9,4.5-8.3   c2.7-4,5.7-7.9,6.8-9C65.7,76.2,66.8,75.8,68,75.8 M68,73.8c-1.6,0-3.2,0.6-4.4,1.8c-2.4,2.4-14.1,18.1-11.6,20.5   c0.2,0.2,0.6,0.3,1,0.3c4.3,0,17.3-9.8,19.5-12c2.4-2.4,2.4-6.4,0-8.9C71.2,74.4,69.6,73.8,68,73.8L68,73.8z" fill="#3D3D3D"/></g><circle cx="63.6" cy="23.1" fill="none" r="12" stroke="#3D3D3D" stroke-miterlimit="10" stroke-width="2"/><path d="M72.4,84.5c-2.4,2.4-6.4,2.4-8.9,0c-2.4-2.4-2.4-6.4,0-8.9S81.6,61.5,84,64C86.5,66.4,74.8,82,72.4,84.5z" fill="#3D3D3D"/><circle cx="68" cy="80" fill="#FFFFFF" r="2.9"/><line fill="none" stroke="#3D3D3D" stroke-miterlimit="10" stroke-width="2" x1="68" x2="68" y1="49" y2="56"/><line fill="none" stroke="#3D3D3D" stroke-miterlimit="10" stroke-width="2" x1="68" x2="68" y1="104" y2="111"/><line fill="none" stroke="#3D3D3D" stroke-miterlimit="10" stroke-width="2" x1="37" x2="44" y1="80" y2="80"/><line fill="none" stroke="#3D3D3D" stroke-miterlimit="10" stroke-width="2" x1="92" x2="99" y1="80" y2="80"/></svg>