<?xml version="1.0" ?><!DOCTYPE svg  PUBLIC '-//W3C//DTD SVG 1.1//EN'  'http://www.w3.org/Graphics/SVG/1.1/DTD/svg11.dtd'><svg enable-background="new 0 0 128 128" id="Layer_1" version="1.1" viewBox="0 0 128 128" xml:space="preserve" xmlns="http://www.w3.org/2000/svg" xmlns:xlink="http://www.w3.org/1999/xlink"><path d="M31.6,105c-8.2,0-14.9-6.8-14.9-15s6.7-15,14.9-15h51.3c8.2,0,14.9,6.8,14.9,15s-6.7,15-14.9,15H31.6z" fill="#FFFFFF"/><path d="M31.6,105c-8.2,0-14.9-6.8-14.9-15s6.7-15,14.9-15  h51.3c8.2,0,14.9,6.8,14.9,15s-6.7,15-14.9,15H31.6z" fill="none" stroke="#3D3D3D" stroke-miterlimit="10" stroke-width="2"/><path d="M25,81.9V42h10v5.1c0,0,9,2,9.5,9c-0.5,0.5-9.5,0-9.5,0V66h6v-4h4v13.5L25,81.9z" fill="#FFFFFF"/><path d="M25,81.9V42h10v5.1  c0,0,9,2,9.5,9c-0.5,0.5-9.5,0-9.5,0V66h6v-4h4v13.5L25,81.9z" fill="none" stroke="#3D3D3D" stroke-linejoin="round" stroke-miterlimit="10" stroke-width="2"/><path d="M35.6,105c-8.2,0-14.9-6.8-14.9-15s6.7-15,14.9-15h51.3c8.2,0,14.9,6.8,14.9,15s-6.7,15-14.9,15H35.6z" fill="#FFFFFF"/><path d="M35.6,105c-8.2,0-14.9-6.8-14.9-15s6.7-15,14.9-15  h51.3c8.2,0,14.9,6.8,14.9,15s-6.7,15-14.9,15H35.6z" fill="none" stroke="#3D3D3D" stroke-miterlimit="10" stroke-width="2"/><path d="M39.6,105c-8.2,0-14.9-6.8-14.9-15s6.7-15,14.9-15h51.3c8.2,0,14.9,6.8,14.9,15s-6.7,15-14.9,15H39.6z" fill="#FFFFFF"/><path d="M39.6,105c-8.2,0-14.9-6.8-14.9-15s6.7-15,14.9-15  h51.3c8.2,0,14.9,6.8,14.9,15s-6.7,15-14.9,15H39.6z" fill="none" stroke="#3D3D3D" stroke-miterlimit="10" stroke-width="2"/><path d="M105,79V27.7c0,0-12,5-12,18.4S93,75,93,75" fill="#FFFFFF"/><path d="M105,79V27.7  c0,0-12,5-12,18.4S93,75,93,75" fill="none" stroke="#3D3D3D" stroke-linejoin="round" stroke-miterlimit="10" stroke-width="2"/><path d="M34.9,75.5c0,0,25.5-17.7,27.4-18.9c1.8-1.2,7.3-0.7,9.8,0c-0.8,5.2-2.6,7.5-5.9,9.7  C63.6,68,43.2,81.4,43.2,81.4" fill="#FFFFFF"/><path d="M34.9,75.5  c0,0,25.5-17.7,27.4-18.9c1.8-1.2,7.3-0.7,9.8,0c-0.8,5.2-2.6,7.5-5.9,9.7C63.6,68,43.2,81.4,43.2,81.4" fill="none" stroke="#3D3D3D" stroke-linejoin="round" stroke-miterlimit="10" stroke-width="2"/><path d="M43.5,105c-8.2,0-14.9-6.8-14.9-15s6.7-15,14.9-15h51.3c8.2,0,14.9,6.8,14.9,15s-6.7,15-14.9,15H43.5z" fill="#53AF80"/><path d="M43.5,105c-8.2,0-14.9-6.8-14.9-15s6.7-15,14.9-15  h51.3c8.2,0,14.9,6.8,14.9,15s-6.7,15-14.9,15H43.5z" fill="none" stroke="#3D3D3D" stroke-miterlimit="10" stroke-width="2"/><polygon fill="#FFFFFF" points="79,87 73,87 73,81 67,81 67,87 61,87 61,93 67,93 67,99 73,99 73,93 79,93 "/></svg>