<?xml version="1.0" ?><!DOCTYPE svg  PUBLIC '-//W3C//DTD SVG 1.1//EN'  'http://www.w3.org/Graphics/SVG/1.1/DTD/svg11.dtd'><svg enable-background="new 0 0 128 128" id="Layer_1" version="1.1" viewBox="0 0 128 128" xml:space="preserve" xmlns="http://www.w3.org/2000/svg" xmlns:xlink="http://www.w3.org/1999/xlink"><path d="M65.6,34.7l1.6,79.9l-32.2,0l1.7-79.9c0.1-3.8,3.3-6.8,7.1-6.8l14.7,0C62.3,27.9,65.5,30.9,65.6,34.7z" fill="#FFFFFF"/><path d="  M65.6,34.7l1.6,79.9l-32.2,0l1.7-79.9c0.1-3.8,3.3-6.8,7.1-6.8l14.7,0C62.3,27.9,65.5,30.9,65.6,34.7z" fill="none" stroke="#3D3D3D" stroke-linecap="round" stroke-linejoin="round" stroke-miterlimit="10" stroke-width="2"/><line fill="none" stroke="#3D3D3D" stroke-linejoin="round" stroke-miterlimit="10" stroke-width="2" x1="36" x2="67" y1="107" y2="107"/><line fill="none" stroke="#3D3D3D" stroke-linecap="round" stroke-linejoin="round" stroke-miterlimit="10" stroke-width="2" x1="41" x2="41" y1="114" y2="107"/><line fill="none" stroke="#3D3D3D" stroke-linecap="round" stroke-linejoin="round" stroke-miterlimit="10" stroke-width="2" x1="46" x2="46" y1="114" y2="107"/><line fill="none" stroke="#3D3D3D" stroke-linecap="round" stroke-linejoin="round" stroke-miterlimit="10" stroke-width="2" x1="51" x2="51" y1="114" y2="107"/><line fill="none" stroke="#3D3D3D" stroke-linecap="round" stroke-linejoin="round" stroke-miterlimit="10" stroke-width="2" x1="56" x2="56" y1="114" y2="107"/><line fill="none" stroke="#3D3D3D" stroke-linecap="round" stroke-linejoin="round" stroke-miterlimit="10" stroke-width="2" x1="61" x2="61" y1="114" y2="107"/><path d="M59,17.5V27H42v-9.5c0-1.9,2.5-3.5,4.5-3.5h8.7C57,14,59,15.5,59,17.5z" fill="#53AF80"/><path d="  M59,17.5V27H42v-9.5c0-1.9,2.5-3.5,4.5-3.5h8.7C57,14,59,15.5,59,17.5z" fill="none" stroke="#3D3D3D" stroke-linecap="round" stroke-linejoin="round" stroke-miterlimit="10" stroke-width="2"/><line fill="none" stroke="#3D3D3D" stroke-linejoin="round" stroke-miterlimit="10" stroke-width="2" x1="48" x2="48" y1="27" y2="18"/><line fill="none" stroke="#3D3D3D" stroke-linejoin="round" stroke-miterlimit="10" stroke-width="2" x1="53" x2="53" y1="27" y2="18"/><rect fill="#8DCEA8" height="52" width="12" x="45" y="41"/><rect fill="none" height="52" stroke="#3D3D3D" stroke-linejoin="round" stroke-miterlimit="10" stroke-width="2" width="12" x="45" y="41"/><rect fill="#53AF80" height="100" width="4" x="90" y="14"/><rect fill="none" height="100" stroke="#3D3D3D" stroke-linecap="round" stroke-linejoin="round" stroke-miterlimit="10" stroke-width="2" width="4" x="90" y="14"/><rect fill="#FFFFFF" height="26" width="13" x="77" y="15"/><rect fill="none" height="26" stroke="#3D3D3D" stroke-linecap="round" stroke-linejoin="round" stroke-miterlimit="10" stroke-width="2" width="13" x="77" y="15"/><line fill="none" stroke="#3D3D3D" stroke-linecap="square" stroke-linejoin="round" stroke-miterlimit="10" stroke-width="2" x1="77" x2="85" y1="36" y2="36"/><line fill="none" stroke="#3D3D3D" stroke-linecap="square" stroke-linejoin="round" stroke-miterlimit="10" stroke-width="2" x1="77" x2="85" y1="31" y2="31"/><line fill="none" stroke="#3D3D3D" stroke-linecap="square" stroke-linejoin="round" stroke-miterlimit="10" stroke-width="2" x1="77" x2="85" y1="26" y2="26"/><line fill="none" stroke="#3D3D3D" stroke-linecap="square" stroke-linejoin="round" stroke-miterlimit="10" stroke-width="2" x1="77" x2="85" y1="21" y2="21"/></svg>